<mxfile host="app.diagrams.net" modified="2022-09-27T21:23:41.896Z" agent="5.0 (Macintosh; Intel Mac OS X 10_15_7) AppleWebKit/537.36 (KHTML, like Gecko) Chrome/105.0.0.0 Safari/537.36" etag="bPLz4VpPrIlTRe6sM0Gf" version="20.3.7" type="github">
  <diagram id="apZXv9KYR27fRoOn6EyO" name="Page-1">
    <mxGraphModel dx="3538" dy="1507" grid="1" gridSize="10" guides="1" tooltips="1" connect="1" arrows="1" fold="1" page="1" pageScale="1" pageWidth="850" pageHeight="1100" math="0" shadow="0">
      <root>
        <mxCell id="0" />
        <mxCell id="1" parent="0" />
        <mxCell id="sRFoW2Q1E6vJ9wMTpfTS-1" value="VPC" style="points=[[0,0],[0.25,0],[0.5,0],[0.75,0],[1,0],[1,0.25],[1,0.5],[1,0.75],[1,1],[0.75,1],[0.5,1],[0.25,1],[0,1],[0,0.75],[0,0.5],[0,0.25]];outlineConnect=0;gradientColor=none;html=1;whiteSpace=wrap;fontSize=12;fontStyle=0;container=1;pointerEvents=0;collapsible=0;recursiveResize=0;shape=mxgraph.aws4.group;grIcon=mxgraph.aws4.group_vpc;strokeColor=#248814;fillColor=none;verticalAlign=top;align=left;spacingLeft=30;fontColor=#AAB7B8;dashed=0;" vertex="1" parent="1">
          <mxGeometry x="80" y="120" width="680" height="600" as="geometry" />
        </mxCell>
        <mxCell id="sRFoW2Q1E6vJ9wMTpfTS-3" value="Availability zone" style="sketch=0;outlineConnect=0;gradientColor=none;html=1;whiteSpace=wrap;fontSize=12;fontStyle=0;shape=mxgraph.aws4.group;grIcon=mxgraph.aws4.group_availability_zone;strokeColor=#545B64;fillColor=none;verticalAlign=top;align=left;spacingLeft=30;fontColor=#545B64;dashed=1;" vertex="1" parent="sRFoW2Q1E6vJ9wMTpfTS-1">
          <mxGeometry x="40" y="50" width="600" height="240" as="geometry" />
        </mxCell>
        <mxCell id="sRFoW2Q1E6vJ9wMTpfTS-19" value="Master&lt;br&gt;Database" style="shape=datastore;whiteSpace=wrap;html=1;" vertex="1" parent="sRFoW2Q1E6vJ9wMTpfTS-1">
          <mxGeometry x="600" y="144" width="50" height="60" as="geometry" />
        </mxCell>
        <mxCell id="sRFoW2Q1E6vJ9wMTpfTS-23" value="" style="verticalLabelPosition=bottom;html=1;verticalAlign=top;align=center;strokeColor=none;fillColor=#00BEF2;shape=mxgraph.azure.autoscale;" vertex="1" parent="sRFoW2Q1E6vJ9wMTpfTS-1">
          <mxGeometry x="560" y="270" width="50" height="30" as="geometry" />
        </mxCell>
        <mxCell id="sRFoW2Q1E6vJ9wMTpfTS-2" value="AWS Account" style="points=[[0,0],[0.25,0],[0.5,0],[0.75,0],[1,0],[1,0.25],[1,0.5],[1,0.75],[1,1],[0.75,1],[0.5,1],[0.25,1],[0,1],[0,0.75],[0,0.5],[0,0.25]];outlineConnect=0;gradientColor=none;html=1;whiteSpace=wrap;fontSize=12;fontStyle=0;container=1;pointerEvents=0;collapsible=0;recursiveResize=0;shape=mxgraph.aws4.group;grIcon=mxgraph.aws4.group_account;strokeColor=#CD2264;fillColor=none;verticalAlign=top;align=left;spacingLeft=30;fontColor=#CD2264;dashed=0;" vertex="1" parent="1">
          <mxGeometry x="40" y="80" width="800" height="680" as="geometry" />
        </mxCell>
        <mxCell id="sRFoW2Q1E6vJ9wMTpfTS-8" value="Private subnet" style="points=[[0,0],[0.25,0],[0.5,0],[0.75,0],[1,0],[1,0.25],[1,0.5],[1,0.75],[1,1],[0.75,1],[0.5,1],[0.25,1],[0,1],[0,0.75],[0,0.5],[0,0.25]];outlineConnect=0;gradientColor=none;html=1;whiteSpace=wrap;fontSize=12;fontStyle=0;container=1;pointerEvents=0;collapsible=0;recursiveResize=0;shape=mxgraph.aws4.group;grIcon=mxgraph.aws4.group_security_group;grStroke=0;strokeColor=#147EBA;fillColor=#E6F2F8;verticalAlign=top;align=left;spacingLeft=30;fontColor=#147EBA;dashed=0;" vertex="1" parent="sRFoW2Q1E6vJ9wMTpfTS-2">
          <mxGeometry x="400" y="140" width="260" height="180" as="geometry" />
        </mxCell>
        <mxCell id="sRFoW2Q1E6vJ9wMTpfTS-11" value="" style="outlineConnect=0;dashed=0;verticalLabelPosition=bottom;verticalAlign=top;align=center;html=1;shape=mxgraph.aws3.vpc_nat_gateway;fillColor=#F58534;gradientColor=none;" vertex="1" parent="sRFoW2Q1E6vJ9wMTpfTS-8">
          <mxGeometry x="50" y="44" width="50" height="46" as="geometry" />
        </mxCell>
        <mxCell id="sRFoW2Q1E6vJ9wMTpfTS-18" value="App Server" style="aspect=fixed;perimeter=ellipsePerimeter;html=1;align=center;shadow=0;dashed=0;spacingTop=3;image;image=img/lib/active_directory/generic_server.svg;" vertex="1" parent="sRFoW2Q1E6vJ9wMTpfTS-8">
          <mxGeometry x="140" y="45" width="28.000000000000004" height="50" as="geometry" />
        </mxCell>
        <mxCell id="sRFoW2Q1E6vJ9wMTpfTS-4" value="Availability zone" style="sketch=0;outlineConnect=0;gradientColor=none;html=1;whiteSpace=wrap;fontSize=12;fontStyle=0;shape=mxgraph.aws4.group;grIcon=mxgraph.aws4.group_availability_zone;strokeColor=#545B64;fillColor=none;verticalAlign=top;align=left;spacingLeft=30;fontColor=#545B64;dashed=1;" vertex="1" parent="sRFoW2Q1E6vJ9wMTpfTS-2">
          <mxGeometry x="80" y="370" width="600" height="240" as="geometry" />
        </mxCell>
        <mxCell id="sRFoW2Q1E6vJ9wMTpfTS-6" value="Public subnet" style="points=[[0,0],[0.25,0],[0.5,0],[0.75,0],[1,0],[1,0.25],[1,0.5],[1,0.75],[1,1],[0.75,1],[0.5,1],[0.25,1],[0,1],[0,0.75],[0,0.5],[0,0.25]];outlineConnect=0;gradientColor=none;html=1;whiteSpace=wrap;fontSize=12;fontStyle=0;container=1;pointerEvents=0;collapsible=0;recursiveResize=0;shape=mxgraph.aws4.group;grIcon=mxgraph.aws4.group_security_group;grStroke=0;strokeColor=#248814;fillColor=#E9F3E6;verticalAlign=top;align=left;spacingLeft=30;fontColor=#248814;dashed=0;" vertex="1" parent="sRFoW2Q1E6vJ9wMTpfTS-2">
          <mxGeometry x="120" y="140" width="240" height="165" as="geometry" />
        </mxCell>
        <mxCell id="sRFoW2Q1E6vJ9wMTpfTS-15" value="Web Server" style="aspect=fixed;perimeter=ellipsePerimeter;html=1;align=center;shadow=0;dashed=0;spacingTop=3;image;image=img/lib/active_directory/web_server.svg;" vertex="1" parent="sRFoW2Q1E6vJ9wMTpfTS-6">
          <mxGeometry x="60" y="57.5" width="40" height="50" as="geometry" />
        </mxCell>
        <mxCell id="sRFoW2Q1E6vJ9wMTpfTS-16" value="" style="aspect=fixed;perimeter=ellipsePerimeter;html=1;align=center;shadow=0;dashed=0;spacingTop=3;image;image=img/lib/active_directory/web_server.svg;" vertex="1" parent="sRFoW2Q1E6vJ9wMTpfTS-6">
          <mxGeometry x="80" y="42" width="40" height="50" as="geometry" />
        </mxCell>
        <mxCell id="sRFoW2Q1E6vJ9wMTpfTS-22" value="Autoscale" style="verticalLabelPosition=bottom;html=1;verticalAlign=top;align=center;strokeColor=none;fillColor=#00BEF2;shape=mxgraph.azure.autoscale;" vertex="1" parent="sRFoW2Q1E6vJ9wMTpfTS-6">
          <mxGeometry x="90" y="135" width="50" height="30" as="geometry" />
        </mxCell>
        <mxCell id="sRFoW2Q1E6vJ9wMTpfTS-7" value="Public subnet" style="points=[[0,0],[0.25,0],[0.5,0],[0.75,0],[1,0],[1,0.25],[1,0.5],[1,0.75],[1,1],[0.75,1],[0.5,1],[0.25,1],[0,1],[0,0.75],[0,0.5],[0,0.25]];outlineConnect=0;gradientColor=none;html=1;whiteSpace=wrap;fontSize=12;fontStyle=0;container=1;pointerEvents=0;collapsible=0;recursiveResize=0;shape=mxgraph.aws4.group;grIcon=mxgraph.aws4.group_security_group;grStroke=0;strokeColor=#248814;fillColor=#E9F3E6;verticalAlign=top;align=left;spacingLeft=30;fontColor=#248814;dashed=0;" vertex="1" parent="sRFoW2Q1E6vJ9wMTpfTS-2">
          <mxGeometry x="120" y="410" width="240" height="180" as="geometry" />
        </mxCell>
        <mxCell id="sRFoW2Q1E6vJ9wMTpfTS-20" value="DB instance&#xa;read replica" style="sketch=0;outlineConnect=0;fontColor=#232F3E;gradientColor=none;strokeColor=#232F3E;fillColor=#ffffff;dashed=0;verticalLabelPosition=bottom;verticalAlign=top;align=center;html=1;fontSize=12;fontStyle=0;aspect=fixed;shape=mxgraph.aws4.resourceIcon;resIcon=mxgraph.aws4.db_instance_read_replica;" vertex="1" parent="sRFoW2Q1E6vJ9wMTpfTS-2">
          <mxGeometry x="590" y="440" width="60" height="60" as="geometry" />
        </mxCell>
        <mxCell id="sRFoW2Q1E6vJ9wMTpfTS-21" value="" style="outlineConnect=0;dashed=0;verticalLabelPosition=bottom;verticalAlign=top;align=center;html=1;shape=mxgraph.aws3.application_load_balancer;fillColor=#F58534;gradientColor=none;" vertex="1" parent="sRFoW2Q1E6vJ9wMTpfTS-2">
          <mxGeometry x="90" y="202.5" width="40" height="40" as="geometry" />
        </mxCell>
        <mxCell id="sRFoW2Q1E6vJ9wMTpfTS-13" value="Amazon Cloudfront" style="sketch=0;outlineConnect=0;fontColor=#232F3E;gradientColor=none;strokeColor=#ffffff;fillColor=#232F3E;dashed=0;verticalLabelPosition=middle;verticalAlign=bottom;align=center;html=1;whiteSpace=wrap;fontSize=10;fontStyle=1;spacing=3;shape=mxgraph.aws4.productIcon;prIcon=mxgraph.aws4.cloudfront;" vertex="1" parent="1">
          <mxGeometry x="-210" y="320" width="80" height="110" as="geometry" />
        </mxCell>
        <mxCell id="sRFoW2Q1E6vJ9wMTpfTS-14" value="" style="sketch=0;pointerEvents=1;shadow=0;dashed=0;html=1;strokeColor=none;fillColor=#DF8C42;labelPosition=center;verticalLabelPosition=bottom;verticalAlign=top;align=center;outlineConnect=0;shape=mxgraph.veeam2.aws_s3;" vertex="1" parent="1">
          <mxGeometry x="-80" y="340" width="34" height="34" as="geometry" />
        </mxCell>
      </root>
    </mxGraphModel>
  </diagram>
</mxfile>
